<svg width="36" height="36" viewBox="0 0 36 36" fill="none" xmlns="http://www.w3.org/2000/svg">
<path d="M9 9C9 10.6569 7.65685 12 6 12C4.34315 12 3 10.6569 3 9C3 7.34315 4.34315 6 6 6C7.65685 6 9 7.34315 9 9Z" fill="black"/>
<path fill-rule="evenodd" clip-rule="evenodd" d="M25.0917 11.9653C23.9341 9.9808 21.0667 9.98079 19.909 11.9653L15.6326 19.2964L13.8089 16.3122C12.6391 14.398 9.85901 14.398 8.68922 16.3122L3.11381 25.4356C1.89216 27.4347 3.33086 30 5.67365 30L15 30L30.3888 30C32.7042 30 34.1468 27.4883 32.9802 25.4884L25.0917 11.9653ZM13.9155 22.2399L12.0206 25.4884C11.7359 25.9764 11.6066 26.4949 11.6074 27H5.67365L11.2491 17.8766L13.9155 22.2399ZM14.6119 27L22.5004 13.4769L30.3888 27L14.6119 27Z" fill="black"/>
</svg>
