<svg width="66" height="66" viewBox="0 0 66 66" fill="none" xmlns="http://www.w3.org/2000/svg">
<circle cx="33" cy="33" r="33" fill="#FEBD06"/>
<path fill-rule="evenodd" clip-rule="evenodd" d="M28.1734 48.8515C35.2731 48.8515 37.8551 40.3517 41.8887 35.6873C44.7746 32.3499 49.7 33.3451 51.1579 28.6729C54.8239 16.9243 45.0118 8.65542 32.2112 8.65542C19.4106 8.65542 10.7797 15.9075 8.9161 26.8093C7.0525 37.7111 15.3728 48.8515 28.1734 48.8515Z" fill="#191847"/>
<path fill-rule="evenodd" clip-rule="evenodd" d="M22.7214 64.3943L29.1081 41.6688C26.3907 38.3675 24.581 34.3623 24.8947 29.891C25.8275 16.5969 44.3332 19.5214 47.933 26.2311C51.5327 32.9408 51.105 49.9605 46.4526 51.1597C44.7489 51.5988 41.2769 50.6469 37.606 48.611L41.1588 64.9629C38.5249 65.6399 35.7639 66 32.9187 66C29.3599 66 25.9328 65.4367 22.7214 64.3943Z" fill="#F09B9B"/>
<path fill-rule="evenodd" clip-rule="evenodd" d="M25.5134 18.0245C14.0937 29.2061 25.5571 41.0908 28.698 41.0908C28.9007 39.4775 29.5192 37.9082 30.4253 36.4146C29.9441 35.7912 29.6589 35.016 29.6589 34.1759C29.6589 32.1174 31.3712 30.4487 33.4834 30.4487C34.143 30.4487 34.7637 30.6114 35.3053 30.898C39.8837 26.9934 45.6259 24.2714 48.477 23.7362C53.436 22.8052 36.9331 6.84285 25.5134 18.0245Z" fill="#191847"/>
</svg>
